<svg width="65" height="61" viewBox="0 0 65 61" fill="none" xmlns="http://www.w3.org/2000/svg">
<path d="M37.2176 38.168H27.7851C23.7105 38.168 21.2722 40.6063 21.2722 44.6809V54.1134C21.2722 58.188 23.7105 60.6263 27.7851 60.6263H37.2176C41.2922 60.6263 43.7305 58.188 43.7305 54.1134V44.6809C43.7305 40.6063 41.2922 38.168 37.2176 38.168ZM40.2335 50.7767C39.9126 51.0975 39.4314 51.3221 38.918 51.3542H34.3943L34.4264 55.8138C34.3943 56.3592 34.2018 56.8084 33.8168 57.1934C33.496 57.5142 33.0147 57.7388 32.5014 57.7388C31.4426 57.7388 30.5764 56.8725 30.5764 55.8138V51.3221L26.0847 51.3542C25.5712 51.3458 25.0817 51.1359 24.7215 50.7698C24.3614 50.4037 24.1596 49.9107 24.1597 49.3971C24.1597 48.3384 25.026 47.4721 26.0847 47.4721L30.5764 47.5042V43.0125C30.5764 41.9538 31.4426 41.0555 32.5014 41.0555C33.5601 41.0555 34.4264 41.9538 34.4264 43.0125L34.3943 47.4721H38.918C39.9768 47.4721 40.8431 48.3384 40.8431 49.3971C40.8103 49.9148 40.5942 50.404 40.2335 50.7767Z" fill="#1B4090"/>
<path d="M63.7505 29.6658C61.7934 23.2491 56.9167 18.6291 50.7888 17.2495C48.9921 9.22869 44.0513 3.48578 37.0571 1.30411C29.4213 -1.03797 20.5663 1.23995 15.0159 7.04703C10.1071 12.1483 8.50297 19.1745 10.3959 26.6499C3.56214 28.3183 0.417969 34.2858 0.417969 39.6758C0.417969 45.7074 4.36422 52.477 13.1551 53.0866H21.2721V44.6487C21.2721 40.5741 23.7105 38.1358 27.785 38.1358H37.2175C41.2921 38.1358 43.7305 40.5741 43.7305 44.6487V53.0866H46.4576C51.0134 53.0866 55.3767 51.3862 58.7134 48.3383C63.943 43.7824 65.868 36.6279 63.7505 29.6658Z" fill="#D9D9D9"/>
</svg>
